<svg xmlns="http://www.w3.org/2000/svg" width="24" height="24" viewBox="0 0 24 24">
    <path fill="#FFF" fill-rule="nonzero" d="M23.582 11.907a.97.97 0 0 1-1.372 0l-.348-.348v8.382c0 2.208-1.804 4.003-4.02 4.003H5.946c-1.068 0-2.07-.42-2.819-1.178a4 4 0 0 1-1.152-2.825v-8.444l-.317.316a.976.976 0 0 1-1.375-.003.975.975 0 0 1 .002-1.374l9.396-9.4a3.107 3.107 0 0 1 2.203-.91c.833 0 1.615.322 2.204.91l9.493 9.497a.965.965 0 0 1 .001 1.374zm-9.261 4.115a.043.043 0 0 0-.044-.045H9.59a.043.043 0 0 0-.044.045v5.976h4.775v-5.976zm5.594-6.407l-7.204-7.204a1.155 1.155 0 0 0-.827-.342 1.16 1.16 0 0 0-.828.343l-7.14 7.141v10.385c0 1.137.91 2.06 2.026 2.06h1.66v-5.976a1.99 1.99 0 0 1 1.988-1.988h4.687a1.99 1.99 0 0 1 1.987 1.988v5.976h1.578a2.07 2.07 0 0 0 2.073-1.944V9.615z"/>
</svg>
