<svg xmlns="http://www.w3.org/2000/svg" width="24" height="24" viewBox="0 0 24 24">
    <path fill="#C02026" fill-rule="nonzero" d="M17.409 19.589c0 .702-.571 1.273-1.274 1.273h-9.17c-.703 0-1.273-.57-1.274-1.273V6.088H17.41v13.5zM8.239 3.795c0-.14.113-.255.254-.255h6.114c.14 0 .254.114.254.255v.764H8.238v-.764zm12.99.764h-4.84v-.764c0-.983-.799-1.783-1.782-1.783H8.493c-.983 0-1.783.8-1.783 1.783v.764H1.87a.764.764 0 0 0 0 1.529h2.293v13.5a2.805 2.805 0 0 0 2.802 2.803h9.17a2.805 2.805 0 0 0 2.802-2.802V6.088h2.293a.764.764 0 0 0 0-1.529zM11.55 18.57a.764.764 0 0 0 .764-.764V9.654a.764.764 0 0 0-1.528 0v8.151a.764.764 0 0 0 .764.765zm-3.566 0a.764.764 0 0 0 .764-.764V9.654a.764.764 0 1 0-1.529 0v8.151c0 .422.343.765.765.765zm7.132 0a.764.764 0 0 0 .764-.764V9.654a.764.764 0 1 0-1.528 0v8.151c0 .422.342.765.764.765z"/>
</svg>
