<svg xmlns="http://www.w3.org/2000/svg" width="24" height="24" viewBox="0 0 24 24">
    <g fill="#222" fill-rule="nonzero">
        <path d="M11.15 13.56c-.175-.175-.3-.35-.325-.575l-1.35.2c.075.55.35 1.05.8 1.425.3.225.625.4 1 .525v1.3H12.6V15.16c.425-.1.85-.3 1.175-.575l.05-.05a2.6 2.6 0 0 0 .775-2c-.05-.725-.4-1.4-1-1.85-.55-.4-1.075-.525-1.525-.625-.425-.1-.675-.175-.875-.4-.225-.225-.35-.475-.35-.7 0-.25.15-.425.275-.55.45-.375 1.2-.35 1.65.025.075.075.15.175.2.25l1.375-.2c-.125-.4-.35-.775-.7-1.05a2.68 2.68 0 0 0-1.125-.575v-1.3H11.2v1.325c-.35.1-.7.275-.975.5l-.025.025-.025.025c-.45.4-.7.95-.725 1.5-.025.6.225 1.225.725 1.725s1.075.65 1.55.75c.35.075.675.175 1 .4.275.2.425.5.45.825.025.35-.125.7-.375.95-.375.375-1.175.375-1.65-.025z"/>
        <path d="M.125 2.41v1.475h2.95V20.16l2.2 2.2 2.25-2.25 2.25 2.25 2.25-2.25 2.25 2.25 2.25-2.25 2.25 2.25.725-.725 1.475-1.475V3.885h2.875V2.41H.125zm19.4 17.15l-.725.725-2.25-2.25-2.25 2.25-2.25-2.25-2.25 2.25-2.25-2.25-2.25 2.25-.725-.725V3.885h15V19.56h-.05z"/>
    </g>
</svg>
