<svg xmlns="http://www.w3.org/2000/svg" width="24" height="24" viewBox="0 0 24 24">
    <g fill="#222" fill-rule="evenodd">
        <path d="M1.86 7.711H19.14V6.294c0-.78-.636-1.416-1.417-1.416h-1.417V5.99h-1.611V4.88h-8.39v1.11h-1.61V4.876H3.279c-.781 0-1.417.636-1.417 1.417v1.417zM19.14 9.322H1.86v9.75c0 .781.636 1.415 1.417 1.415h14.444c.78 0 1.306-.576 1.417-1.416 1.017-.308 1.61-.652 1.61-.652v.654a3.032 3.032 0 0 1-3.027 3.028H3.278A3.032 3.032 0 0 1 .25 19.073V6.295a3.032 3.032 0 0 1 3.028-3.028h1.416V1.6h1.61v1.667h8.39V1.6h1.61v1.667h1.418a3.032 3.032 0 0 1 3.028 3.027v4.374s-.52-.426-1.625-.593c0-.29.014-.753.014-.753z"/>
        <path d="M17.439 16.88c1.838 0 4.09-1.512 4.157-2.283-.067-.86-2.302-2.38-4.157-2.38-1.84 0-4.09 1.511-4.158 2.284.066.858 2.301 2.38 4.158 2.38m0-6.432c2.813 0 5.924 2.33 5.924 4.1 0 1.77-3.111 4.1-5.924 4.1s-5.925-2.33-5.925-4.1c0-1.77 3.112-4.1 5.925-4.1"/>
        <path d="M17.438 15.367c.482 0 .869-.37.869-.815 0-.446-.387-.816-.87-.816-.48 0-.869.37-.869.816 0 .445.388.815.87.815m0-3.398c1.453 0 2.637 1.156 2.637 2.583 0 1.426-1.184 2.583-2.637 2.583S14.8 15.978 14.8 14.552c0-1.427 1.184-2.583 2.636-2.583"/>
    </g>
</svg>
