<svg xmlns="http://www.w3.org/2000/svg" width="24" height="24" viewBox="0 0 24 24">
    <path fill="#FFF" fill-rule="nonzero" d="M17.642 3.254h1.417a3.032 3.032 0 0 1 3.028 3.027V19.06a3.031 3.031 0 0 1-3.028 3.028H4.615a3.031 3.031 0 0 1-3.028-3.028V6.282a3.031 3.031 0 0 1 3.028-3.028h1.416V1.587h1.611v1.667h8.389V1.587h1.61v1.667zM3.198 9.309v9.75c0 .78.636 1.416 1.417 1.416H19.06c.78 0 1.416-.636 1.416-1.416v-9.75H3.198zm17.277-3.028c0-.78-.635-1.416-1.416-1.416h-1.417v1.111H16.03v-1.11H7.642v1.11h-1.61V4.863H4.615c-.781 0-1.417.636-1.417 1.417v1.417h17.277V6.281z"/>
</svg>
