<?xml version="1.0" encoding="UTF-8"?>
<svg width="22px" height="22px" viewBox="0 0 22 22" version="1.1" xmlns="http://www.w3.org/2000/svg" xmlns:xlink="http://www.w3.org/1999/xlink">
    <!-- Generator: Sketch 52 (66869) - http://www.bohemiancoding.com/sketch -->
    <title>icon/calendar copy</title>
    <desc>Created with Sketch.</desc>
    <g id="Symbols" stroke="none" stroke-width="1" fill="none" fill-rule="evenodd">
        <g id="menu/modal-off" transform="translate(-19.000000, -13.000000)" fill="#B0B0B0">
            <g id="icon/calendar.gray" transform="translate(18.000000, 12.000000)">
                <g id="icon.calendar" transform="translate(1.000000, 1.000000)">
                    <path d="M16.6417439,2.25403469 L18.0588221,2.25403469 C19.7278156,2.25403469 21.08588,3.61143256 21.0869565,5.2811815 L21.0869565,18.0598097 C21.0869565,19.7296571 19.7286695,21.0879441 18.0588221,21.0879441 L3.61509093,21.0879441 C1.94524354,21.0879441 0.586956522,19.7296571 0.586956522,18.0598097 L0.586956522,5.2821691 C0.586956522,3.61232171 1.94524354,2.25403469 3.61509093,2.25403469 L5.0311815,2.25403469 L5.0311815,0.586956522 L6.64223774,0.586956522 L6.64223774,2.25403469 L15.0306877,2.25403469 L15.0306877,0.586956522 L16.6417439,0.586956522 L16.6417439,2.25403469 Z M2.19801277,8.30931591 L2.19801277,18.0588221 C2.19801277,18.8393541 2.83383142,19.4749127 3.61509093,19.4749127 L18.0588221,19.4749127 C18.8392241,19.4749127 19.4749127,18.8392241 19.4749127,18.0588221 L19.4749127,8.30931591 L2.19801277,8.30931591 Z M19.4749127,5.2811815 C19.4749127,4.50015568 18.839588,3.86509093 18.0588221,3.86509093 L16.6417439,3.86509093 L16.6417439,4.97614718 L15.0306877,4.97614718 L15.0306877,3.86509093 L6.64223774,3.86509093 L6.64223774,4.97515957 L5.0321691,4.97515957 L5.0321691,3.86410333 L3.61509093,3.86410333 C2.83370135,3.86410333 2.19801277,4.49979192 2.19801277,5.2811815 L2.19801277,6.69825967 L19.4749127,6.69825967 L19.4749127,5.2811815 Z" id="Shape" fill-rule="nonzero"></path>
                </g>
            </g>
        </g>
    </g>
</svg>