<svg xmlns="http://www.w3.org/2000/svg" width="24" height="24" viewBox="0 0 24 24">
    <g fill="#222" fill-rule="evenodd">
        <path d="M1.86 7.711H19.14V6.294c0-.78-.636-1.416-1.417-1.416h-1.417V5.99h-1.611V4.88h-8.39v1.11h-1.61V4.876H3.279c-.781 0-1.417.636-1.417 1.417v1.417zm17.279 3.052v-1.44h-1.89s-1.416-1.643-3.207 0H1.86v9.748c0 .782.636 1.416 1.417 1.416h14.444c.78 0 1.417-.634 1.417-1.416v-1.849l1.61 1.541v.31a3.032 3.032 0 0 1-3.027 3.028H3.278A3.032 3.032 0 0 1 .25 19.073V6.295a3.032 3.032 0 0 1 3.028-3.028h1.416V1.6h1.61v1.667h8.39V1.6h1.61v1.667h1.418a3.032 3.032 0 0 1 3.028 3.027V9.18l-1.611 1.583z"/>
        <path d="M18.97 15.532l2.525 2.524c.409.409 1.124.417 1.548.018.426-.426.435-1.13.009-1.557l-2.533-2.533 2.524-2.524a1.095 1.095 0 0 0 0-1.548c-.412-.412-1.135-.411-1.548 0l-2.524 2.524-2.524-2.532c-.41-.411-1.135-.412-1.548 0a1.094 1.094 0 0 0 0 1.547l2.524 2.532-2.533 2.526a1.108 1.108 0 0 0 .01 1.564c.408.385 1.116.397 1.538 0l2.533-2.541z"/>
    </g>
</svg>
