<svg xmlns="http://www.w3.org/2000/svg" width="24" height="24" viewBox="0 0 24 24">
    <g fill="#222" fill-rule="evenodd">
        <path d="M19.189 7.097v-.802c0-.781-.636-1.416-1.417-1.416h-1.417v1.11h-1.611V4.88H6.356v1.11h-1.61V4.878H3.329A1.42 1.42 0 0 0 1.91 6.295v1.417h16.472L16.8 9.322H1.91v9.75c0 .78.637 1.416 1.419 1.416h14.443c.78 0 1.417-.635 1.417-1.416v-1.517l1.61-1.541v3.06a3.03 3.03 0 0 1-3.027 3.027H3.329a3.032 3.032 0 0 1-3.03-3.027V6.296a3.033 3.033 0 0 1 3.03-3.03h1.416V1.6h1.61v1.667h8.389V1.6h1.61v1.667h1.418A3.032 3.032 0 0 1 20.8 6.295v.552c-.812-.146-1.611.25-1.611.25"/>
        <path d="M19.22 10.268l1.945 1.946.993-.995a.218.218 0 0 0 .064-.155.218.218 0 0 0-.064-.155l-1.636-1.636a.224.224 0 0 0-.31 0l-.992.995zm-5.285 5.29l-.416 2.364 2.36-.416 4.269-4.274-1.946-1.945-4.267 4.272zm-1.295 3.967a.72.72 0 0 1-.501-.2.74.74 0 0 1-.216-.643l.633-3.592a.712.712 0 0 1 .085-.232l-.013-.024.127-.13 6.444-6.446c.619-.623 1.714-.626 2.34 0l1.635 1.636c.313.311.484.727.484 1.17 0 .444-.171.86-.484 1.171l-6.568 6.575-.026-.012a.736.736 0 0 1-.232.084l-3.587.633a.858.858 0 0 1-.121.01z"/>
    </g>
</svg>
