<?xml version="1.0" encoding="UTF-8"?>
<svg width="19px" height="21px" viewBox="0 0 19 21" version="1.1" xmlns="http://www.w3.org/2000/svg" xmlns:xlink="http://www.w3.org/1999/xlink">
    <!-- Generator: Sketch 52 (66869) - http://www.bohemiancoding.com/sketch -->
    <title>icon/calendar copy</title>
    <desc>Created with Sketch.</desc>
    <g id="Symbols" stroke="none" stroke-width="1" fill="none" fill-rule="evenodd">
        <g id="menu/user-off" transform="translate(-20.000000, -13.000000)" fill="#B0B0B0" stroke="#B0B0B0">
            <g id="icon/client.gray" transform="translate(18.000000, 12.000000)">
                <g id="icon.people" transform="translate(11.500000, 12.000000) scale(-1, 1) translate(-11.500000, -12.000000) translate(3.000000, 2.000000)">
                    <path d="M8.55480465,8.49904744 C3.91722326,8.49904744 0.154386047,12.2648651 0.154386047,16.8994605 C0.154386047,17.5704279 0.233697674,18.2232 0.380013953,18.848093 C0.403227565,18.95135 0.480066213,19.0342083 0.581282665,19.0651293 C0.682499118,19.0960504 0.792523868,19.0702778 0.869477997,18.9976215 C0.946432127,18.9249651 0.978478254,18.8166013 0.953418605,18.7137767 C0.817093023,18.1314698 0.74327907,17.5240186 0.74327907,16.8994605 C0.74327907,12.5830605 4.23547442,9.08793488 8.55480465,9.08793488 C12.871093,9.08793488 16.3663023,12.5832 16.3663023,16.8994605 C16.3663023,17.5240186 16.2924605,18.1310233 16.1534837,18.7124651 C16.1166637,18.8702368 16.2142072,19.0281173 16.3717779,19.0657884 C16.5293486,19.1034595 16.6877533,19.0067697 16.7262744,18.8494047 C16.8758279,18.2236186 16.9551953,17.5704279 16.9551953,16.8994605 C16.9551953,12.2647256 13.1895395,8.49904744 8.55480465,8.49904744 Z" id="Shape"></path>
                    <path d="M8.55480465,0.100922791 C6.50548372,0.100922791 4.83603256,1.76716186 4.83603256,3.81677023 C4.83603256,5.8663786 6.50517674,7.53555907 8.55480465,7.53555907 C10.6044047,7.53555907 12.2706465,5.86607163 12.2706465,3.81677023 C12.2706465,1.76746605 10.6040698,0.100922791 8.55480465,0.100922791 Z M8.55480465,0.689807442 C10.2861256,0.689807442 11.6817535,2.0854493 11.6817535,3.81677023 C11.6817535,5.54808837 10.2857907,6.94667721 8.55480465,6.94667721 C6.8237907,6.94667721 5.42489767,5.5477814 5.42489767,3.81677023 C5.42489767,2.08575628 6.82345581,0.689807442 8.55480465,0.689807442 Z" id="Shape"></path>
                </g>
            </g>
        </g>
    </g>
</svg>