<?xml version="1.0" encoding="UTF-8"?>
<svg width="10px" height="10px" viewBox="0 0 10 10" version="1.1" xmlns="http://www.w3.org/2000/svg" xmlns:xlink="http://www.w3.org/1999/xlink">
    <!-- Generator: Sketch 52 (66869) - http://www.bohemiancoding.com/sketch -->
    <title>icon/close</title>
    <desc>Created with Sketch.</desc>
    <g id="Symbols" stroke="none" stroke-width="1" fill="none" fill-rule="evenodd">
        <g id="Day/Popout" transform="translate(-175.000000, -15.000000)" fill="#7D7D7D" fill-rule="nonzero">
            <g id="icon/close" transform="translate(175.000000, 15.000000)">
                <path d="M0.25258012,9.74741988 C0.426398696,9.9103748 0.654535578,9.99728408 0.8718088,9.99728408 C1.08908202,9.99728408 1.3172189,9.9103748 1.49103748,9.74741988 L5,6.2275937 L8.50896252,9.73655622 C8.6827811,9.9103748 8.91091798,9.99728408 9.1281912,9.99728408 C9.34546442,9.99728408 9.5736013,9.9103748 9.74741988,9.74741988 C10.0841934,9.41064639 10.0841934,8.85659967 9.74741988,8.51982618 L6.2275937,5 L9.73655622,1.49103748 C10.0733297,1.15426399 10.0733297,0.600217273 9.73655622,0.263443781 C9.39978273,-0.0733297121 8.84573601,-0.0733297121 8.50896252,0.263443781 L5,3.7724063 L1.49103748,0.25258012 C1.15426399,-0.0841933732 0.600217273,-0.0841933732 0.263443781,0.25258012 C-0.0733297121,0.589353612 -0.0733297121,1.14340033 0.263443781,1.48017382 L3.7724063,5 L0.25258012,8.50896252 C-0.0841933732,8.85659967 -0.0841933732,9.39978273 0.25258012,9.74741988 Z" id="Shape"></path>
            </g>
        </g>
    </g>
</svg>