<svg width="18px" height="20px" viewBox="0 0 18 20" version="1.1" xmlns="http://www.w3.org/2000/svg" xmlns:xlink="http://www.w3.org/1999/xlink">
    <g id="Manage-Staff" stroke="none" stroke-width="1" fill="none" fill-rule="evenodd">
        <g id="VenueWebApp-Manage-Staff-2---Hover" transform="translate(-300.000000, -51.000000)" fill="#7D7D7D">
            <g id="TITLE" transform="translate(257.000000, 20.000000)">
                <g id="Button1-Small-Copy-3" transform="translate(21.000000, 15.000000)">
                    <g id="icon/filter.darkgray" transform="translate(19.000000, 13.000000)">
                        <g id="icon.filter" transform="translate(3.000000, 3.000000)">
                            <path d="M15.5396313,1.86567721 L10.088605,8.63813505 L10.088605,17.6081169 L7.65771559,15.4815748 L7.65771559,8.63862123 L2.20620304,1.86567721 C2.14484666,1.79380459 2.13312207,1.69193521 2.17654618,1.60800295 C2.21478974,1.52198809 2.30123406,1.46762422 2.39532624,1.4704146 L15.350022,1.4704146 C15.4444705,1.46770752 15.5312308,1.52222064 15.5697744,1.60848913 C15.6125745,1.69244143 15.6006837,1.79389666 15.5396313,1.86567721 M15.350022,0.0113948035 L2.3958124,0.0113948035 C1.73461049,0.0113948035 1.14633526,0.380889996 0.860948844,0.977916407 C0.574988178,1.56817241 0.656488867,2.27059461 1.07000534,2.77969164 L6.19918195,9.15153888 L6.19918195,15.5909649 C6.19918195,15.9419853 6.34989708,16.2759895 6.61389167,16.5059516 L9.53095895,19.0583855 C9.88903101,19.3745485 10.399854,19.4498377 10.8339157,19.2504258 C11.2704872,19.0558956 11.5504593,18.6213377 11.5471386,18.1433987 L11.5471386,9.15153888 L16.675829,2.7801778 C17.0893455,2.27108078 17.1708462,1.56865859 16.8848855,0.97840259 C16.6047561,0.385095814 16.0061268,0.00794227647 15.350022,0.0113948035" id="Shape" fill-rule="nonzero"></path>
                        </g>
                    </g>
                </g>
            </g>
        </g>
    </g>
</svg>