<?xml version="1.0" encoding="UTF-8"?>
<svg width="18px" height="22px" viewBox="0 0 18 22" version="1.1" xmlns="http://www.w3.org/2000/svg" xmlns:xlink="http://www.w3.org/1999/xlink">
    <!-- Generator: Sketch 52 (66869) - http://www.bohemiancoding.com/sketch -->
    <title>icon/notes.gray</title>
    <desc>Created with Sketch.</desc>
    <g id="Symbols" stroke="none" stroke-width="1" fill="none" fill-rule="evenodd">
        <g id="icon/notes.gray" transform="translate(-3.000000, -1.000000)" fill="#B0B0B0" fill-rule="nonzero">
            <g transform="translate(3.000000, 1.000000)" id="Shape">
                <path d="M12.5262439,21.0121951 L2.65268293,21.0121951 C1.56947546,21.0121951 0.663902439,20.1065407 0.663902439,19.0232195 L0.663902454,2.48909647 C0.663640588,1.40575787 1.56939845,0.5 2.65268293,0.5 L15.3473171,0.5 C16.4305245,0.5 17.3360976,1.40565443 17.3360976,2.48897561 L17.3360976,16.2023415 C17.3360976,16.4387431 17.2422198,16.6652231 17.0749192,16.832968 L13.1568705,20.7510168 C12.9896957,20.9181916 12.7627946,21.0121951 12.5262439,21.0121951 Z M2.4475122,2.48878049 L2.4475122,19.0232195 C2.4475122,19.111983 2.55628827,19.2283902 2.65268293,19.2283902 L12.1569985,19.2283902 L15.5526829,15.8328855 L15.5526829,2.48897561 C15.5526829,2.40021214 15.4439069,2.28380488 15.3475122,2.28380488 L2.64609362,2.28380488 C2.55827063,2.28894643 2.4475122,2.39475375 2.4475122,2.48878049 Z"></path>
                <path d="M12.5262439,21.0121951 C12.4094942,21.0121951 12.2934454,20.9893011 12.1848699,20.9442072 C11.8518243,20.8061043 11.634439,20.4810316 11.634439,20.1203902 L11.634439,16.2023415 C11.634439,15.7098088 12.0337113,15.3105366 12.5262439,15.3105366 L16.4442927,15.3105366 C16.8050251,15.3105366 17.1301543,15.527834 17.2681096,15.8609675 C17.4062843,16.194186 17.3299644,16.5779229 17.0749192,16.832968 L13.1568705,20.7510168 C12.9887318,20.9191554 12.7615365,21.0121951 12.5262439,21.0121951 Z M13.4180488,17.9673968 L14.2913653,17.0941463 L13.4180488,17.0941463 L13.4180488,17.9673968 Z"></path>
                <path d="M13.2316098,6.35853659 L4.76839024,6.35853659 C4.27585763,6.35853659 3.87658537,5.95926433 3.87658537,5.46673171 C3.87658537,4.97419909 4.27585763,4.57492683 4.76839024,4.57492683 L13.2314146,4.57492683 C13.7239473,4.57492683 14.1232195,4.97419909 14.1232195,5.46673171 C14.1232195,5.95922457 13.7241822,6.35853659 13.2316098,6.35853659 Z"></path>
                <path d="M13.2316098,9.80634146 L4.76839024,9.80634146 C4.27585763,9.80634146 3.87658537,9.4070692 3.87658537,8.91453659 C3.87658537,8.42200397 4.27585763,8.02273171 4.76839024,8.02273171 L13.2314146,8.02273171 C13.7239473,8.02273171 14.1232195,8.42200397 14.1232193,8.91408573 C14.1236636,9.40682663 13.7242862,9.80634146 13.2316098,9.80634146 Z"></path>
                <path d="M13.2316098,13.1759024 L4.76839024,13.1759024 C4.27585763,13.1759024 3.87658537,12.7766302 3.87658537,12.2840976 C3.87658537,11.7915649 4.27585763,11.3922927 4.76839024,11.3922927 L13.2314146,11.3922927 C13.7239473,11.3922927 14.1232195,11.7915649 14.1232193,12.2836467 C14.1236636,12.7763876 13.7242862,13.1759024 13.2316098,13.1759024 Z"></path>
            </g>
        </g>
    </g>
</svg>