<?xml version="1.0" encoding="UTF-8"?>
<svg width="21px" height="20px" viewBox="0 0 21 20" version="1.1" xmlns="http://www.w3.org/2000/svg" xmlns:xlink="http://www.w3.org/1999/xlink">
    <!-- Generator: Sketch 52 (66869) - http://www.bohemiancoding.com/sketch -->
    <title>icon/room.gray</title>
    <desc>Created with Sketch.</desc>
    <g id="Symbols" stroke="none" stroke-width="1" fill="none" fill-rule="evenodd">
        <g id="icon/room.gray" transform="translate(-2.000000, -2.000000)" fill="#B0B0B0" fill-rule="nonzero">
            <g transform="translate(1.000000, 2.000000)" id="Shape">
                <path d="M21.3269231,18.2769231 C21.6803789,18.2769231 22.0076923,18.6042365 22.0076923,18.9576923 C22.0076923,19.3111481 21.707302,19.6115385 21.3538462,19.6115385 L1.61923077,19.6115385 C1.26577497,19.6115385 0.965384615,19.3111481 0.965384615,18.9576923 C0.965384615,18.6042365 1.26577497,18.3038462 1.61923077,18.3038462 L2.5,18.3038462 L2.5,1.53846154 C2.5,1.18500574 2.80039035,0.884615385 3.15384615,0.884615385 L19.9538462,0.884615385 C20.307302,0.884615385 20.6076923,1.18500574 20.6076923,1.53846154 L20.6076923,18.2769231 L21.3269231,18.2769231 Z M19.3,7.00990923 C18.7348416,7.45393575 18.0461723,7.72344725 17.3267606,7.76088486 C17.5080359,8.10494438 17.7433522,8.41354374 18.0284062,8.68410401 L18.0730977,8.70100207 C18.4154095,9.00304186 18.8142229,9.23156675 19.3,9.40625359 L19.3,7.00990923 Z M7.7144992,18.2769231 L15.4114835,18.2769231 C15.4471057,17.7667764 15.5163443,17.039999 15.6075202,16.2461538 L7.49921076,16.2461538 C7.57073631,16.8881494 7.67018077,17.8448555 7.7144992,18.2769231 Z M16.9015841,9.3633897 C16.3973079,8.82617218 16.0429764,8.19223331 15.7955736,7.46313305 C15.1956175,7.21698831 14.6885413,6.81479105 14.3271173,6.30006383 C13.6958168,7.21034564 12.6653513,7.76538462 11.5269231,7.76538462 C10.3927084,7.76538462 9.35941679,7.21345078 8.72552036,6.31711472 C8.36551254,6.8157795 7.86382797,7.21549484 7.28581922,7.46129447 C7.03867936,8.1903091 6.684719,8.82422773 6.18096549,9.36149199 C6.66811844,11.0333512 7.04049497,12.9088151 7.3289171,14.9384615 L15.7787899,14.9384615 C16.0576692,12.9777649 16.4293737,11.0791967 16.9015841,9.3633897 Z M17.1807692,6.45769231 C18.1198651,6.45769231 18.9324051,5.82365452 19.2073794,4.93846154 L15.1280115,4.93846154 C15.4061625,5.8190895 16.2367011,6.45769231 17.1807692,6.45769231 Z M3.91922711,4.93846154 C4.17266731,5.82660779 4.99427915,6.45769231 5.95384615,6.45769231 C6.8891727,6.45769231 7.70424282,5.82725373 8.00021772,4.93846154 L3.91922711,4.93846154 Z M11.5538462,6.45769231 C12.492942,6.45769231 13.305482,5.82365452 13.5804563,4.93846154 L9.50108846,4.93846154 C9.77923941,5.8190895 10.609778,6.45769231 11.5538462,6.45769231 Z M3.80769231,2.19230769 L3.80769231,3.63076923 L19.3,3.63076923 L19.3,2.19230769 L3.80769231,2.19230769 Z M3.80769231,7.01212659 L3.80769231,9.41662878 C4.28409629,9.25619394 4.70039717,9.01415619 5.02901472,8.70607724 L5.07545784,8.68771142 C5.34521548,8.4317931 5.57138838,8.12845726 5.77003835,7.76054014 C5.04376763,7.72214768 4.36900651,7.45688636 3.80769231,7.01212659 Z M3.80769231,18.3038462 L6.38123635,18.3038462 C6.13174512,15.4783422 5.75314446,12.8270925 5.07232909,10.269313 C4.68976313,10.4829328 4.27282848,10.6522801 3.80769231,10.7787069 L3.80769231,18.3038462 Z M19.2730769,18.3038462 L19.2730769,10.8032214 C18.8263863,10.6749349 18.4009089,10.4934129 18.0081236,10.2704689 C17.3248573,12.8372882 16.9443123,15.4975969 16.6971713,18.3038462 L19.2730769,18.3038462 Z M16.6769231,18.5269231 L16.6760226,18.548123 C16.6763225,18.5445985 16.6766227,18.5410741 16.6769231,18.53755 L16.6769231,18.5269231 Z"></path>
            </g>
        </g>
    </g>
</svg>